<svg xmlns="http://www.w3.org/2000/svg" width="137" height="24" fill="none"><path fill="#fff" d="M12 5.344A6.664 6.664 0 0 0 5.344 12 6.664 6.664 0 0 0 12 18.656 6.664 6.664 0 0 0 18.656 12 6.664 6.664 0 0 0 12 5.344m0 12.375A5.725 5.725 0 0 1 6.281 12 5.725 5.725 0 0 1 12 6.281 5.725 5.725 0 0 1 17.719 12 5.725 5.725 0 0 1 12 17.719M23.751.055a.47.47 0 0 0-.482.025A8.34 8.34 0 0 0 19.594 7v6.082c0 .652.254 1.266.715 1.727l.878.878v6.908a1.408 1.408 0 0 0 2.813 0V.469a.47.47 0 0 0-.249-.414m-.689 22.539a.47.47 0 0 1-.937 0v-7.102a.47.47 0 0 0-.137-.331l-1.016-1.016a1.5 1.5 0 0 1-.44-1.064V6.999c0-2.155.931-4.181 2.53-5.579z"/><path fill="#fff" d="M10.925 8.282a.47.47 0 0 0-.616-.247A4.3 4.3 0 0 0 7.691 12a.469.469 0 0 0 .938 0 3.37 3.37 0 0 1 2.049-3.102.47.47 0 0 0 .247-.616M12 7.691h-.024a.469.469 0 0 0 .003.938H12a.469.469 0 1 0 0-.938m6.498-1.856A8.93 8.93 0 0 0 12 3.043a8.86 8.86 0 0 0-4.06.97.469.469 0 1 0 .426.836A7.9 7.9 0 0 1 12 3.98c2.222 0 4.288.888 5.818 2.5a.468.468 0 1 0 .68-.645m.455 11.058a.47.47 0 0 0-.658.077A7.98 7.98 0 0 1 12 20.02a8 8 0 0 1-4.336-1.272.469.469 0 1 0-.508.788A8.93 8.93 0 0 0 12 20.957a8.91 8.91 0 0 0 7.03-3.406.47.47 0 0 0-.077-.658m-12.58.822-.007-.008-.007-.009a.469.469 0 1 0-.718.604l.005.005.016.019a.468.468 0 1 0 .711-.61M5.813 0a.47.47 0 0 0-.47.469V5.53H4.5V.47a.469.469 0 1 0-.937 0v5.06h-.845V.47a.469.469 0 1 0-.937 0v5.06H.939V.47a.469.469 0 1 0-.938 0v5.719c0 1.15.698 2.187 1.734 2.636v13.77a1.408 1.408 0 0 0 2.813 0V8.824A2.89 2.89 0 0 0 6.28 6.188V.468A.47.47 0 0 0 5.813 0M3.948 8.045a.47.47 0 0 0-.339.45v14.099a.47.47 0 0 1-.937 0V8.495a.47.47 0 0 0-.339-.45A1.94 1.94 0 0 1 .96 6.469h4.364a1.94 1.94 0 0 1-1.375 1.576M35.1 20q-1.12 0-1.6-.44t-.48-1.26q0-.4.06-1.36.06-.98.16-2.22t.2-2.62.2-2.6.16-2.14.06-1.26q0-.3.32-.3h1.1q1.12 0 1.54.44.44.42.44 1.26a.8.8 0 0 1-.02.18v.18l-.66 9.34h3.6q.12 0 .22.08.1.06.1.2l-.08 1.18q-.04.6-.34.98-.28.36-1.18.36zm16.93-6.52q-.06.6-.18 1.34-.12.72-.38 1.48-.24.74-.66 1.44A5 5 0 0 1 49.73 19q-.66.54-1.6.88-.92.32-2.2.32-1.3 0-2.22-.36-.921-.38-1.5-1.02a4.05 4.05 0 0 1-.84-1.52 6.3 6.3 0 0 1-.26-1.84q0-.44.04-1.18.04-.76.1-1.64.08-.88.16-1.82.08-.96.14-1.82.08-.86.14-1.54.06-.7.08-1.06.02-.38.1-.48a.27.27 0 0 1 .24-.12h1.1q1.22 0 1.64.52t.42 1.54q0 .06-.04.54-.02.46-.08 1.14-.04.68-.1 1.48-.04.8-.1 1.52-.04.72-.08 1.26-.02.54-.02.72 0 .34.02.78.04.44.16.84.14.4.42.68.3.26.84.26.68 0 1.1-.46.44-.46.66-1.1.24-.64.32-1.3.1-.66.14-1.08.08-1.02.16-2.1.1-1.08.16-2.02.08-.94.12-1.64t.04-.96q0-.4.06-.5.06-.12.26-.12h1.1q.68 0 1.06.12.399.12.6.32a.8.8 0 0 1 .24.46q.06.26.06.54 0 .26-.04.98a105 105 0 0 1-.16 3.54q-.06.98-.14 1.72M62.333 20q-.82 0-1.22-.24a1.47 1.47 0 0 1-.58-.6 338 338 0 0 1-1.96-4.1q-.9-1.96-1.84-3.96.021 2.16.06 4.3l.08 4.3q0 .3-.32.3h-1.1q-1.14 0-1.62-.44-.46-.46-.46-1.34 0-.24.02-.8.04-.58.1-1.36t.12-1.7l.16-1.9.2-2.52a81 81 0 0 0 .12-1.68q.06-.7.08-1.18l.04-.98q0-.3.32-.3h1.6q.66 0 1.08.16.42.14.68.4.28.26.44.6.16.32.3.68.48 1.24.84 2.14a191 191 0 0 1 1.14 2.76q.22.5.4.92t.36.82q.18.38.38.84 0-1.18-.02-2.42 0-1.26-.02-2.44 0-1.2-.02-2.3V5.98q0-.18.34-.18h1.1q.66 0 1.04.14.4.12.62.38.22.24.28.6.08.36.08.82 0 .5-.06 1.54-.06 1.02-.14 2.3t-.18 2.66q-.1 1.36-.2 2.52a71 71 0 0 1-.16 1.98q-.06.8-.08.94a.27.27 0 0 1-.12.24.37.37 0 0 1-.24.08zm10.31-14.2q.5 0 .82.2.34.18.56.5.219.3.36.7t.24.82l1.32 5.34q.52 2.1.82 3.4.3 1.28.42 1.9t.12.86q0 .28-.14.38-.12.1-.4.1h-1.02q-.861 0-1.38-.2a1.8 1.8 0 0 1-.78-.62 2.8 2.8 0 0 1-.38-.96q-.12-.58-.2-1.3h-3.48l-.66 2.76q-.1.32-.46.32h-1.06q-.321 0-.66-.06a2.3 2.3 0 0 1-.62-.24 1.6 1.6 0 0 1-.44-.4q-.18-.26-.18-.62 0-.44.28-1.44t.7-2.26q.44-1.28.96-2.66.54-1.4 1.04-2.64t.9-2.18q.42-.94.64-1.32.16-.28.28-.32.14-.06.5-.06zm-2.4 8.22h2.3l-.84-5.28zM82.975 20q-1.14 0-1.62-.44-.46-.46-.46-1.34 0-.24.02-.8.04-.58.1-1.36t.12-1.7l.16-1.9q.16-2.02.22-3.28.08-1.26.12-1.98.06-.9.12-1.14.06-.26.26-.26.62 0 1.26-.02.66-.04 1.26-.08t1.12-.06q.54-.04.96-.04 1.28 0 2.2.32t1.48.9q.58.58.84 1.4.28.82.28 1.84 0 1.56-.62 2.78t-1.98 1.86l1.68 2.4q.46.68.7 1.06.24.36.24.54 0 .14-.18.4-.16.24-.5.5-.32.24-.8.42-.46.18-1.04.18-.64 0-1.12-.42a4.3 4.3 0 0 1-.84-1.1q-.36-.7-.64-1.6-.26-.9-.5-1.88a8 8 0 0 1-1.18-.14q-.06.88-.12 1.68t-.1 1.44q-.04.62-.08 1.04a8 8 0 0 0-.04.48.5.5 0 0 1-.08.24q-.06.06-.24.06zm3.24-11.4q-.24 0-.54.04-.3.02-.64.06-.04.7-.1 1.68-.04.96-.12 2.06.7.16 1.22.16.62 0 1-.24a1.86 1.86 0 0 0 .62-.58q.22-.36.28-.76a3.7 3.7 0 0 0 .08-.72q0-.82-.4-1.26t-1.4-.44m13.304-3.02q1.46 0 2.5.42 1.04.4 1.7 1.2.66.78.96 1.92.3 1.12.3 2.56 0 .8-.12 1.74-.1.94-.4 1.9a8.7 8.7 0 0 1-.78 1.82 5.8 5.8 0 0 1-1.3 1.56q-.78.68-1.88 1.1-1.1.4-2.6.4-1.66 0-2.76-.5-1.08-.5-1.74-1.34-.64-.86-.92-2.02-.26-1.16-.26-2.48 0-1.56.36-3.04.36-1.5 1.2-2.66.86-1.16 2.26-1.86 1.4-.72 3.48-.72m-.42 3.1q-.7 0-1.22.26-.5.24-.86.66-.34.42-.56.94-.2.52-.32 1.08-.12.54-.16 1.06-.04.5-.04.9 0 1.82.6 2.66.62.84 1.74.84.92 0 1.5-.58.579-.6.9-1.42a7.2 7.2 0 0 0 .46-1.72q.12-.9.12-1.52 0-1.46-.5-2.3-.5-.86-1.66-.86m12.258-3.08q1.881 0 2.781.82.92.82.92 2.14 0 1.12-.62 1.72-.62.58-1.78.58-.36 0-.46-.06-.1-.08-.1-.3 0-.2-.04-.52a2 2 0 0 0-.14-.62q-.12-.3-.381-.5-.26-.22-.719-.22-.64 0-1.14.4-.5.38-.5 1 0 .54.399.88.42.34 1.041.64.62.28 1.34.58.74.3 1.36.8.62.48 1.02 1.22.42.72.419 1.84 0 .88-.299 1.66a3.7 3.7 0 0 1-.86 1.34q-.561.56-1.44.88-.86.32-2.02.32a7.5 7.5 0 0 1-1.86-.22 7.6 7.6 0 0 1-1.48-.54q-.62-.34-.98-.72-.36-.4-.36-.72 0-1.32.14-1.9.16-.58.56-.58.28 0 .58.24l.72.54q.4.3.92.54.54.24 1.24.24.279 0 .54-.04.279-.06.48-.18a.9.9 0 0 0 .34-.32.8.8 0 0 0 .14-.48q0-.5-.38-.8-.381-.3-.96-.54a25 25 0 0 0-1.26-.52 5.3 5.3 0 0 1-1.24-.74 3.8 3.8 0 0 1-.96-1.22q-.38-.74-.38-1.9 0-1.3.48-2.2a4.5 4.5 0 0 1 1.259-1.46 4.9 4.9 0 0 1 1.741-.82 7.5 7.5 0 0 1 1.939-.26m10.021 0q1.88 0 2.78.82.92.82.92 2.14 0 1.12-.62 1.72-.62.58-1.78.58-.36 0-.46-.06-.1-.08-.1-.3 0-.2-.04-.52a2 2 0 0 0-.14-.62 1.17 1.17 0 0 0-.38-.5q-.261-.22-.72-.22-.64 0-1.14.4-.5.38-.5 1 0 .54.4.88.42.34 1.04.64.62.28 1.34.58.74.3 1.36.8.62.48 1.02 1.22.42.72.42 1.84 0 .88-.3 1.66a3.7 3.7 0 0 1-.86 1.34q-.561.56-1.44.88-.86.32-2.02.32a7.5 7.5 0 0 1-1.86-.22 7.6 7.6 0 0 1-1.48-.54q-.62-.34-.98-.72-.36-.4-.36-.72 0-1.32.14-1.9.16-.58.56-.58.28 0 .58.24l.72.54q.4.3.92.54.54.24 1.24.24.279 0 .54-.04.279-.06.48-.18a.9.9 0 0 0 .34-.32.8.8 0 0 0 .14-.48q0-.5-.38-.8-.381-.3-.96-.54a25 25 0 0 0-1.26-.52 5.3 5.3 0 0 1-1.24-.74 3.8 3.8 0 0 1-.96-1.22q-.38-.74-.38-1.9 0-1.3.48-2.2a4.5 4.5 0 0 1 1.26-1.46q.78-.58 1.74-.82a7.5 7.5 0 0 1 1.94-.26m10.82.2q.5 0 .82.2.34.18.56.5.22.3.36.7t.24.82l1.32 5.34q.52 2.1.82 3.4.3 1.28.42 1.9t.12.86q0 .28-.14.38-.12.1-.4.1h-1.02q-.86 0-1.38-.2a1.8 1.8 0 0 1-.78-.62 2.8 2.8 0 0 1-.38-.96 14 14 0 0 1-.2-1.3h-3.48l-.66 2.76q-.1.32-.46.32h-1.06q-.32 0-.66-.06a2.3 2.3 0 0 1-.62-.24 1.6 1.6 0 0 1-.44-.4q-.18-.26-.18-.62 0-.44.28-1.44t.7-2.26q.44-1.28.96-2.66.54-1.4 1.04-2.64t.9-2.18q.42-.94.64-1.32.16-.28.28-.32.14-.06.5-.06zm-2.4 8.22h2.3l-.84-5.28z"/></svg>