<svg xmlns="http://www.w3.org/2000/svg" width="233" height="36" fill="none"><path fill="#fff" d="M18 8.016c-5.505 0-9.984 4.479-9.984 9.984s4.479 9.984 9.984 9.984 9.984-4.479 9.984-9.984S23.505 8.016 18 8.016m0 18.562c-4.73 0-8.578-3.848-8.578-8.578S13.27 9.422 18 9.422 26.578 13.27 26.578 18 22.73 26.578 18 26.578M35.627.082a.7.7 0 0 0-.724.038 12.51 12.51 0 0 0-5.512 10.378v9.124a3.64 3.64 0 0 0 1.073 2.59l1.317 1.318v10.36c0 1.164.947 2.11 2.11 2.11S36 35.054 36 33.89V.704a.7.7 0 0 0-.373-.62m-1.033 33.809a.704.704 0 0 1-1.407 0V23.238a.7.7 0 0 0-.205-.497l-1.524-1.523a2.24 2.24 0 0 1-.661-1.596v-9.124c0-3.233 1.398-6.271 3.797-8.368z"/><path fill="#fff" d="M16.387 12.424a.703.703 0 0 0-.923-.37A6.46 6.46 0 0 0 11.537 18a.703.703 0 0 0 1.406 0 5.05 5.05 0 0 1 3.073-4.653.703.703 0 0 0 .37-.923M18 11.537h-.035a.703.703 0 0 0 .004 1.406H18a.703.703 0 0 0 0-1.406m9.747-2.785A13.4 13.4 0 0 0 18 4.564c-2.143 0-4.192.49-6.089 1.456a.703.703 0 1 0 .638 1.253A11.9 11.9 0 0 1 18 5.971a11.92 11.92 0 0 1 8.727 3.75.7.7 0 0 0 .994.025.703.703 0 0 0 .026-.994m.683 16.587a.703.703 0 0 0-.988.116A11.97 11.97 0 0 1 18 30.03c-2.317 0-4.566-.66-6.504-1.909a.703.703 0 0 0-.761 1.183A13.4 13.4 0 0 0 18 31.436a13.37 13.37 0 0 0 10.545-5.11.703.703 0 0 0-.116-.987M9.56 26.573l-.01-.012-.012-.014a.703.703 0 1 0-1.076.906l.007.008q.011.015.024.028a.7.7 0 0 0 .991.075.703.703 0 0 0 .076-.991M8.719 0a.703.703 0 0 0-.703.703v7.594H6.749l.001-.012V.703a.703.703 0 1 0-1.406 0v7.594H4.078V.703a.703.703 0 1 0-1.406 0v7.594H1.406V.703A.703.703 0 1 0 0 .703v8.578a4.33 4.33 0 0 0 2.602 3.955V33.89c0 1.163.946 2.109 2.109 2.109s2.11-.946 2.11-2.11V13.237a4.33 4.33 0 0 0 2.6-3.955V.703A.703.703 0 0 0 8.72 0M5.922 12.067a.7.7 0 0 0-.508.675v21.149a.704.704 0 0 1-1.406 0V12.743a.7.7 0 0 0-.508-.676 2.92 2.92 0 0 1-2.062-2.364h6.546a2.92 2.92 0 0 1-2.062 2.364M49.58 32.5q-2.016 0-2.88-.792t-.864-2.268q0-.72.108-2.448.108-1.764.288-3.996t.36-4.716.36-4.68.288-3.852.108-2.268q0-.54.576-.54h1.98q2.016 0 2.772.792.792.756.792 2.268 0 .18-.036.324v.324L52.244 27.46h6.48a.62.62 0 0 1 .396.144q.18.108.18.36l-.144 2.124q-.072 1.08-.612 1.764-.504.648-2.124.648zm30.473-11.736q-.108 1.08-.324 2.412a17 17 0 0 1-.684 2.664 12.6 12.6 0 0 1-1.188 2.592 9.1 9.1 0 0 1-1.944 2.268q-1.188.972-2.88 1.584-1.656.576-3.96.576-2.34 0-3.996-.648-1.656-.684-2.7-1.836a7.3 7.3 0 0 1-1.512-2.736 11.4 11.4 0 0 1-.468-3.312q0-.792.072-2.124.072-1.368.18-2.952.144-1.584.288-3.276.144-1.728.252-3.276.144-1.548.252-2.772.108-1.26.144-1.908.036-.684.18-.864a.49.49 0 0 1 .432-.216h1.98q2.196 0 2.952.936t.756 2.772q0 .108-.072.972a48 48 0 0 1-.144 2.052q-.072 1.224-.18 2.664-.072 1.44-.18 2.736-.072 1.296-.144 2.268-.036.972-.036 1.296 0 .612.036 1.404.072.792.288 1.512.252.72.756 1.224.54.468 1.512.468 1.224 0 1.98-.828a5.3 5.3 0 0 0 1.188-1.98q.432-1.152.576-2.34.18-1.188.252-1.944.144-1.836.288-3.78.18-1.944.288-3.636.144-1.692.216-2.952t.072-1.728q0-.72.108-.9.108-.216.468-.216h1.98q1.224 0 1.908.216.72.216 1.08.576t.432.828q.108.468.108.972 0 .468-.072 1.764a191 191 0 0 1-.288 6.372 68 68 0 0 1-.252 3.096M98.6 32.5q-1.476 0-2.196-.432t-1.044-1.08a607 607 0 0 1-3.528-7.38 884 884 0 0 0-3.312-7.128q.036 3.888.108 7.74l.144 7.74q0 .54-.576.54h-1.98q-2.052 0-2.916-.792-.828-.828-.828-2.412 0-.432.036-1.44.072-1.044.18-2.448t.216-3.06q.144-1.692.288-3.42l.36-4.536q.144-1.8.216-3.024.108-1.26.144-2.124l.072-1.764q0-.54.576-.54h2.88q1.188 0 1.944.288.756.252 1.224.72.504.468.792 1.08.288.576.54 1.224.864 2.232 1.512 3.852.684 1.62 1.188 2.844t.864 2.124q.396.9.72 1.656t.648 1.476q.324.684.684 1.512 0-2.124-.036-4.356 0-2.268-.036-4.392 0-2.16-.036-4.14V7.264q0-.324.612-.324h1.98q1.188 0 1.872.252.72.216 1.116.684.396.432.504 1.08.144.648.144 1.476 0 .9-.108 2.772-.108 1.836-.252 4.14a484 484 0 0 1-.324 4.788q-.18 2.448-.36 4.536-.144 2.088-.288 3.564-.108 1.44-.144 1.692a.49.49 0 0 1-.216.432.67.67 0 0 1-.432.144zm18.557-25.56q.9 0 1.476.36.612.324 1.008.9.396.54.648 1.26t.432 1.476q1.44 5.832 2.376 9.612a413 413 0 0 1 1.476 6.12q.54 2.304.756 3.42t.216 1.548q0 .504-.252.684-.216.18-.72.18h-1.836q-1.548 0-2.484-.36-.9-.396-1.404-1.116-.468-.72-.684-1.728a26 26 0 0 1-.36-2.34h-6.264l-1.188 4.968q-.18.576-.828.576h-1.908q-.576 0-1.188-.108a4.2 4.2 0 0 1-1.116-.432 2.8 2.8 0 0 1-.792-.72q-.324-.468-.324-1.116 0-.792.504-2.592t1.26-4.068a174 174 0 0 1 1.728-4.788 338 338 0 0 1 1.872-4.752q.9-2.232 1.62-3.924.756-1.692 1.152-2.376.288-.504.504-.576.252-.108.9-.108zm-4.32 14.796h4.14l-1.512-9.504zM135.755 32.5q-2.052 0-2.916-.792-.828-.828-.828-2.412 0-.432.036-1.44.072-1.044.18-2.448t.216-3.06q.144-1.692.288-3.42.288-3.636.396-5.904.144-2.268.216-3.564.108-1.62.216-2.052.108-.468.468-.468 1.116 0 2.268-.036a377 377 0 0 0 2.268-.144q1.08-.072 2.016-.108a24 24 0 0 1 1.728-.072q2.304 0 3.96.576t2.664 1.62a6.1 6.1 0 0 1 1.512 2.52q.504 1.476.504 3.312 0 2.808-1.116 5.004t-3.564 3.348l3.024 4.32q.828 1.224 1.26 1.908.432.648.432.972 0 .252-.324.72-.288.432-.9.9-.576.432-1.44.756-.828.324-1.872.324-1.152 0-2.016-.756-.828-.756-1.512-1.98-.648-1.26-1.152-2.88a85 85 0 0 1-.9-3.384q-1.296-.072-2.124-.252a448 448 0 0 1-.216 3.024q-.108 1.44-.18 2.592a63 63 0 0 1-.144 1.872q-.072.72-.072.864-.036.288-.144.432-.108.108-.432.108zm5.832-20.52q-.432 0-.972.072-.54.036-1.152.108-.072 1.26-.18 3.024-.072 1.728-.216 3.708 1.26.288 2.196.288 1.116 0 1.8-.432.72-.432 1.116-1.044.396-.648.504-1.368.144-.72.144-1.296 0-1.476-.72-2.268t-2.52-.792m23.947-5.436q2.628 0 4.5.756 1.872.72 3.06 2.16 1.188 1.404 1.728 3.456.54 2.016.54 4.608 0 1.44-.216 3.132a18 18 0 0 1-.72 3.42 15.7 15.7 0 0 1-1.404 3.276 10.4 10.4 0 0 1-2.34 2.808q-1.404 1.224-3.384 1.98-1.98.72-4.68.72-2.988 0-4.968-.9-1.944-.9-3.132-2.412-1.152-1.548-1.656-3.636-.468-2.088-.468-4.464 0-2.808.648-5.472.648-2.7 2.16-4.788Q156.75 9.1 159.27 7.84q2.52-1.296 6.264-1.296m-.756 5.58q-1.26 0-2.196.468a4.7 4.7 0 0 0-1.548 1.188 7 7 0 0 0-1.008 1.692q-.36.936-.576 1.944-.216.972-.288 1.908-.072.9-.072 1.62 0 3.276 1.08 4.788 1.116 1.512 3.132 1.512 1.656 0 2.7-1.044a7.6 7.6 0 0 0 1.62-2.556q.612-1.512.828-3.096.216-1.62.216-2.736 0-2.628-.9-4.14-.9-1.548-2.988-1.548m22.066-5.544q3.384 0 5.004 1.476 1.656 1.476 1.655 3.852 0 2.016-1.116 3.096-1.115 1.044-3.203 1.044-.65 0-.829-.108-.18-.144-.18-.54 0-.36-.071-.936a3.7 3.7 0 0 0-.252-1.116 2.1 2.1 0 0 0-.685-.9q-.468-.396-1.295-.396-1.152 0-2.052.72-.901.684-.901 1.8 0 .972.72 1.584.756.612 1.873 1.152 1.115.504 2.411 1.044 1.332.54 2.449 1.44a6.9 6.9 0 0 1 1.836 2.196q.756 1.296.756 3.312a8.3 8.3 0 0 1-.541 2.988 6.6 6.6 0 0 1-1.547 2.412q-1.008 1.008-2.593 1.584-1.548.576-3.636.576-1.8 0-3.348-.396-1.51-.396-2.664-.972-1.115-.612-1.763-1.296-.65-.72-.649-1.296 0-2.376.252-3.42.288-1.044 1.009-1.044.503 0 1.043.432l1.297.972q.719.54 1.655.972.972.432 2.233.432.504 0 .972-.072.503-.108.864-.324.396-.216.612-.576.25-.36.251-.864 0-.9-.684-1.44t-1.728-.972a44 44 0 0 0-2.267-.936 9.6 9.6 0 0 1-2.233-1.332q-1.044-.864-1.728-2.196t-.684-3.42q0-2.34.864-3.96.9-1.62 2.268-2.628a8.8 8.8 0 0 1 3.133-1.476 13.6 13.6 0 0 1 3.492-.468m18.036 0q3.384 0 5.004 1.476 1.656 1.476 1.656 3.852 0 2.016-1.116 3.096-1.116 1.044-3.204 1.044-.648 0-.828-.108-.18-.144-.18-.54 0-.36-.072-.936a3.6 3.6 0 0 0-.252-1.116 2.1 2.1 0 0 0-.684-.9q-.468-.396-1.296-.396-1.152 0-2.052.72-.9.684-.9 1.8 0 .972.72 1.584.756.612 1.872 1.152 1.116.504 2.412 1.044a9.7 9.7 0 0 1 2.448 1.44 6.9 6.9 0 0 1 1.836 2.196Q211 23.284 211 25.3q0 1.584-.54 2.988a6.6 6.6 0 0 1-1.548 2.412q-1.008 1.008-2.592 1.584-1.548.576-3.636.576-1.8 0-3.348-.396-1.512-.396-2.664-.972-1.116-.612-1.764-1.296-.648-.72-.648-1.296 0-2.376.252-3.42.288-1.044 1.008-1.044.504 0 1.044.432l1.296.972a9 9 0 0 0 1.656.972q.972.432 2.232.432.504 0 .972-.072.504-.108.864-.324.396-.216.612-.576.252-.36.252-.864 0-.9-.684-1.44t-1.728-.972a44 44 0 0 0-2.268-.936 9.6 9.6 0 0 1-2.232-1.332q-1.044-.864-1.728-2.196t-.684-3.42q0-2.34.864-3.96.9-1.62 2.268-2.628a8.8 8.8 0 0 1 3.132-1.476 13.6 13.6 0 0 1 3.492-.468m19.477.36q.9 0 1.476.36.612.324 1.008.9.396.54.648 1.26t.432 1.476q1.44 5.832 2.376 9.612a413 413 0 0 1 1.476 6.12q.54 2.304.756 3.42t.216 1.548q0 .504-.252.684-.216.18-.72.18h-1.836q-1.548 0-2.484-.36-.9-.396-1.404-1.116-.468-.72-.684-1.728a26 26 0 0 1-.36-2.34h-6.264l-1.188 4.968q-.18.576-.828.576h-1.908q-.576 0-1.188-.108a4.2 4.2 0 0 1-1.116-.432 2.8 2.8 0 0 1-.792-.72q-.324-.468-.324-1.116 0-.792.504-2.592t1.26-4.068a174 174 0 0 1 1.728-4.788 338 338 0 0 1 1.872-4.752q.9-2.232 1.62-3.924.756-1.692 1.152-2.376.288-.504.504-.576.252-.108.9-.108zm-4.32 14.796h4.14l-1.512-9.504z"/></svg>