<svg xmlns="http://www.w3.org/2000/svg" width="580" height="573" fill="none"><path fill="#fff" d="M53.438 187H10.43q-.938 0-.938-1.172l.469-164.883q0-.937.937-.937H57.07q13.477 0 24.493 6.562 10.78 6.563 16.992 17.461 6.21 10.781 6.211 23.438 0 10.312-4.688 19.219-4.687 8.906-11.133 14.414 6.914 6.913 10.782 16.054 3.867 9.14 3.867 19.219 0 13.945-6.68 25.43-6.797 11.484-18.164 18.398Q67.382 187 53.438 187M57.07 48.484H38.79V86.22h18.28q8.321 0 13.477-5.86 5.156-5.975 5.156-12.89 0-7.617-5.508-13.242-5.508-5.743-13.125-5.743m-3.633 66.797H38.79l-.234 42.422h14.883q8.671 0 14.882-6.328 6.21-6.328 6.211-15 0-8.672-6.21-14.883-6.212-6.21-14.883-6.211M157.945 187h-27.187q-.938 0-.938-1.172l.469-164.883q0-.937.938-.937h48.515q13.008 0 23.906 6.328t17.344 16.992q6.563 10.664 6.563 24.14 0 8.79-2.696 15.938-2.695 7.15-6.328 12.07-3.515 4.923-6.445 7.266 13.008 14.415 13.008 33.867l.234 49.219q0 1.172-1.172 1.172h-27.187q-.938 0-.938-.703v-49.688q0-8.671-6.093-15-6.094-6.328-15-6.328h-15.821l-.234 70.547q0 1.172-.938 1.172m21.797-138.281h-20.625v37.734h20.625q7.383 0 13.125-5.508 5.86-5.508 5.86-13.476 0-7.617-5.625-13.125-5.626-5.625-13.36-5.625M333.117 187h-77.578q-.937 0-.937-1.172l.234-164.883q0-.937.937-.937h77.11q.937 0 .937 1.172v26.836q0 .937-.937.937h-49.219v37.5h49.219q.937 0 .937.938l.235 27.187q0 .938-.938.938h-49.453v41.953h49.453q.938 0 .938 1.172v27.421q0 .939-.938.938m23.18-1.172 29.765-164.883q.235-.937 1.172-.937h34.805q.938 0 1.172.937l28.594 164.883q.117 1.172-.938 1.172h-26.601q-1.173 0-1.289-1.172l-2.579-17.578h-32.695l-2.578 17.578q-.117 1.172-1.172 1.172h-26.719q-.937 0-.937-1.172m46.992-110.625-10.781 67.383h23.086l-9.844-67.383-1.406-8.906zm116.695 111.563-43.007.234q-1.172 0-1.172-1.172l.468-164.883q0-.937.938-.937l44.883-.235q13.36-.351 24.14 6.094 10.899 6.445 17.344 17.461 6.563 10.9 6.563 24.14v68.907q0 13.828-6.68 25.313-6.797 11.367-18.047 18.164-11.25 6.679-25.43 6.914m2.11-138.282-16.758.235-.234 108.75h14.882q8.907 0 15-6.211 6.094-6.211 6.094-14.883v-69.14q0-7.618-5.625-13.243-5.625-5.742-13.359-5.508M53.438 363H10.43q-.938 0-.938-1.172l.469-164.883q0-.937.937-.937H57.07q13.477 0 24.493 6.562 10.78 6.563 16.992 17.461 6.21 10.781 6.211 23.438 0 10.312-4.688 19.219-4.687 8.906-11.133 14.414 6.914 6.913 10.782 16.054 3.867 9.14 3.867 19.219 0 13.945-6.68 25.43-6.797 11.484-18.164 18.398Q67.382 363 53.438 363m3.632-138.516H38.79v37.735h18.28q8.321 0 13.477-5.86 5.156-5.976 5.156-12.89 0-7.617-5.508-13.242-5.508-5.743-13.125-5.743m-3.633 66.797H38.79l-.234 42.422h14.883q8.671 0 14.882-6.328 6.21-6.328 6.211-15 0-8.672-6.21-14.883-6.212-6.21-14.883-6.211M157.945 363h-27.187q-.938 0-.938-1.172l.469-164.883q0-.937.938-.937h48.515q13.008 0 23.906 6.328t17.344 16.992q6.563 10.664 6.563 24.141 0 8.789-2.696 15.937-2.695 7.149-6.328 12.071-3.515 4.922-6.445 7.265 13.008 14.415 13.008 33.867l.234 49.219q0 1.172-1.172 1.172h-27.187q-.938 0-.938-.703v-49.688q0-8.671-6.093-15-6.094-6.327-15-6.328h-15.821l-.234 70.547q0 1.172-.938 1.172m21.797-138.281h-20.625v37.734h20.625q7.383 0 13.125-5.508 5.86-5.508 5.86-13.476 0-7.617-5.625-13.125-5.626-5.625-13.36-5.625M333.117 363h-77.578q-.937 0-.937-1.172l.234-164.883q0-.937.937-.937h77.11q.937 0 .937 1.172v26.836q0 .937-.937.937h-49.219v37.5h49.219q.937 0 .937.938l.235 27.187q0 .938-.938.938h-49.453v41.953h49.453q.938 0 .938 1.172v27.421q0 .938-.938.938m23.18-1.172 29.765-164.883q.235-.937 1.172-.937h34.805q.938 0 1.172.937l28.594 164.883q.117 1.172-.938 1.172h-26.601q-1.173 0-1.289-1.172l-2.579-17.578h-32.695l-2.578 17.578q-.117 1.172-1.172 1.172h-26.719q-.937 0-.937-1.172m46.992-110.625-10.781 67.383h23.086l-9.844-67.383-1.406-8.906zm116.695 111.563-43.007.234q-1.172 0-1.172-1.172l.468-164.883q0-.937.938-.937l44.883-.235q13.36-.351 24.14 6.094 10.899 6.445 17.344 17.461 6.563 10.899 6.563 24.141v68.906q0 13.828-6.68 25.313-6.797 11.366-18.047 18.164-11.25 6.679-25.43 6.914m2.11-138.282-16.758.235-.234 108.75h14.882q8.907 0 15-6.211 6.094-6.212 6.094-14.883v-69.141q0-7.617-5.625-13.242-5.625-5.742-13.359-5.508M53.438 539H10.43q-.938 0-.938-1.172l.469-164.883q0-.937.937-.937H57.07q13.477 0 24.493 6.562 10.78 6.563 16.992 17.461 6.21 10.781 6.211 23.438 0 10.312-4.688 19.219-4.687 8.906-11.133 14.414 6.914 6.913 10.782 16.054 3.867 9.14 3.867 19.219 0 13.945-6.68 25.43-6.797 11.484-18.164 18.398Q67.382 539 53.438 539m3.632-138.516H38.79v37.735h18.28q8.321 0 13.477-5.86 5.156-5.976 5.156-12.89 0-7.617-5.508-13.242-5.508-5.743-13.125-5.743m-3.633 66.797H38.79l-.234 42.422h14.883q8.671 0 14.882-6.328 6.21-6.328 6.211-15 0-8.672-6.21-14.883-6.212-6.21-14.883-6.211M157.945 539h-27.187q-.938 0-.938-1.172l.469-164.883q0-.937.938-.937h48.515q13.008 0 23.906 6.328t17.344 16.992q6.563 10.664 6.563 24.141 0 8.789-2.696 15.937-2.695 7.149-6.328 12.071-3.515 4.922-6.445 7.265 13.008 14.415 13.008 33.867l.234 49.219q0 1.172-1.172 1.172h-27.187q-.938 0-.938-.703v-49.688q0-8.671-6.093-15-6.094-6.327-15-6.328h-15.821l-.234 70.547q0 1.172-.938 1.172m21.797-138.281h-20.625v37.734h20.625q7.383 0 13.125-5.508 5.86-5.508 5.86-13.476 0-7.617-5.625-13.125-5.626-5.625-13.36-5.625M333.117 539h-77.578q-.937 0-.937-1.172l.234-164.883q0-.937.937-.937h77.11q.937 0 .937 1.172v26.836q0 .937-.937.937h-49.219v37.5h49.219q.937 0 .937.938l.235 27.187q0 .938-.938.938h-49.453v41.953h49.453q.938 0 .938 1.172v27.421q0 .938-.938.938m23.18-1.172 29.765-164.883q.235-.937 1.172-.937h34.805q.938 0 1.172.937l28.594 164.883q.117 1.172-.938 1.172h-26.601q-1.173 0-1.289-1.172l-2.579-17.578h-32.695l-2.578 17.578q-.117 1.172-1.172 1.172h-26.719q-.937 0-.937-1.172m46.992-110.625-10.781 67.383h23.086l-9.844-67.383-1.406-8.906zm116.695 111.563-43.007.234q-1.172 0-1.172-1.172l.468-164.883q0-.937.938-.937l44.883-.235q13.36-.351 24.14 6.094 10.899 6.445 17.344 17.461 6.563 10.899 6.563 24.141v68.906q0 13.828-6.68 25.313-6.797 11.366-18.047 18.164-11.25 6.679-25.43 6.914m2.11-138.282-16.758.235-.234 108.75h14.882q8.907 0 15-6.211 6.094-6.212 6.094-14.883v-69.141q0-7.617-5.625-13.242-5.625-5.742-13.359-5.508"/></svg>